<?xml version="1.0" encoding="UTF-8"?>
<!DOCTYPE svg PUBLIC "-//W3C//DTD SVG 1.1//EN" "http://www.w3.org/Graphics/SVG/1.1/DTD/svg11.dtd">
<!-- Creator: CorelDRAW X7 -->
<svg xmlns="http://www.w3.org/2000/svg" xml:space="preserve" width="109.807mm" height="18.3464mm" version="1.1" style="shape-rendering:geometricPrecision; text-rendering:geometricPrecision; image-rendering:optimizeQuality; fill-rule:evenodd; clip-rule:evenodd"
viewBox="0 0 10300730 1721027"
 xmlns:xlink="http://www.w3.org/1999/xlink">
 <defs>
  <style type="text/css">
   <![CDATA[
    .fil2 {fill:#FF0009}
    .fil0 {fill:#FF0009;fill-rule:nonzero}
    .fil1 {fill:#FF0009;fill-rule:nonzero}
   ]]>
  </style>
 </defs>
 <g id="Layer_x0020_1">
  <metadata id="CorelCorpID_0Corel-Layer"/>
  <path class="fil0" d="M538557 1434136c-69905,0 -128938,-4963 -176827,-15159 -47907,-10479 -88282,-22880 -120861,-38039 -32579,-15160 -61265,-30037 -85487,-45197l0 -1056974c0,-12955 2505,-22879 8077,-30037 22833,-29493 56247,-61462 100243,-95918 7795,-5516 14484,-7992 20337,-7992 7233,0 13921,2476 20600,7992 23396,17636 42880,34456 59033,49887 16154,15713 29793,31144 41219,46031 5563,7158 8077,17082 8077,30037l0 391646 3330 0c21726,-27561 52082,-51538 90506,-72213 38704,-20947 92456,-31144 161517,-31144 77410,0 140908,17645 191029,52917 50121,35281 87157,83516 111668,145251 24503,61735 36754,132296 36754,211948 0,86265 -14484,163713 -43161,232886 -28967,69183 -77419,123751 -145635,163994 -68227,39962 -161790,60084 -280419,60084zm10854 -195410c62935,0 111105,-20675 144247,-62570 33142,-41613 49850,-101143 49850,-178871 0,-78545 -14756,-135599 -44559,-171152 -29521,-35553 -72400,-53189 -128375,-53189 -45103,0 -79643,9090 -103310,27279 -23668,18471 -41773,41623 -54296,69455l0 333495c11970,8818 28949,16810 50956,24249 22279,7720 50684,11304 85487,11304z"/>
  <path id="1" class="fil0" d="M1440796 1371294c0,15985 -3349,27289 -10028,33349 -6960,6341 -18386,9371 -34812,9371l-167915 0c-16425,0 -27851,-3030 -34812,-9371 -6688,-6060 -10018,-17364 -10018,-33349l0 -1092527c0,-12955 2504,-22879 8076,-30037 22833,-29493 56247,-61462 100243,-95918 7795,-5516 14484,-7992 20337,-7992 7233,0 13921,2476 20601,7992 23395,17636 42879,34456 59032,49887 16154,15713 29794,31144 41219,46031 5563,7158 8077,17082 8077,30037l0 391646 3330 0c11980,-15713 27570,-31416 46510,-47410 18940,-15704 44559,-29212 76294,-39962 31753,-10751 72409,-15985 121977,-15985 50131,0 98020,10197 144248,30591 46219,20403 84098,54849 113619,103356 29240,48508 43996,114661 43996,198722l0 471569c0,15985 -3349,27289 -10300,33349 -6698,6341 -18386,9371 -34540,9371l-168197 0c-16153,0 -27842,-3030 -34530,-9371 -6951,-6060 -10300,-17364 -10300,-33349l0 -427198c0,-59812 -12533,-103357 -37589,-130364 -25065,-27289 -59042,-40788 -101931,-40788 -42316,0 -75177,9090 -98563,27279 -23396,18471 -41501,41623 -54024,69455l0 501616z"/>
  <path id="2" class="fil0" d="M2485885 1434136c-193534,0 -290437,-116030 -290437,-348100l-563 -410107c0,-12955 2505,-22880 8077,-29775 22833,-29765 56247,-61734 100252,-96180 7786,-5244 14474,-7993 20328,-7993 7242,0 13921,2749 20600,7993 23396,17907 42879,34446 59033,50158 16163,15432 29803,30872 41219,46022 5563,6895 8077,16820 8077,29775l0 387508c0,116856 46782,175289 140345,175289 46228,0 83263,-15985 111115,-47954 27560,-31970 41481,-75525 41481,-130365l0 -384478c0,-12955 2786,-22880 8077,-29775 22842,-29765 56538,-61734 100533,-96180 7514,-5244 14194,-7993 20329,-7993 6960,0 13921,2749 20318,7993 23396,17907 43170,34446 59315,50158 15881,15432 29802,30872 41218,46022 5291,6895 8077,16820 8077,29775l0 700881c0,10197 -3621,19015 -10581,26182 -7242,7439 -16154,11022 -27017,11022l-122249 0c-8903,0 -16426,-1107 -23387,-3583 -6688,-2477 -13095,-7167 -19211,-14334l-50403 -64493 -5854 0c-8630,12402 -21997,26736 -40374,42720 -18105,16267 -44559,30319 -79080,42167 -34530,11857 -81040,17645 -139238,17645z"/>
  <path id="3" class="fil0" d="M3970677 672064c20046,-24249 51237,-47954 93563,-70834 42045,-22870 101368,-34174 178225,-34174 108601,0 187408,27561 235588,83235 48451,55403 72672,138357 72672,249434l0 471569c0,15985 -3339,27289 -10028,33349 -6951,6341 -18377,9371 -34802,9371l-168197 0c-16144,0 -27842,-3030 -34521,-9371 -6698,-6060 -10310,-17364 -10310,-33349l0 -429675c0,-60365 -11144,-103357 -33414,-129538 -22288,-26191 -55693,-39137 -100252,-39137 -39821,0 -71293,8818 -94398,26182 -23114,17636 -39540,41059 -49296,70552l0 501616c0,15985 -3339,27289 -10018,33349 -6961,6341 -18377,9371 -34812,9371l-167915 0c-16435,0 -27852,-3030 -34812,-9371 -6679,-6060 -10028,-17364 -10028,-33349l0 -429675c0,-58714 -12251,-101434 -36754,-128441 -24502,-26735 -56528,-40234 -96349,-40234 -37589,0 -67664,9090 -90496,27279 -22842,18471 -40666,41623 -53189,69455l0 501616c0,15985 -3349,27289 -10028,33349 -6961,6341 -18377,9371 -34803,9371l-167924 0c-16426,0 -27842,-3030 -34812,-9371 -6679,-6060 -10019,-17364 -10019,-33349l0 -676632c0,-12945 2505,-22870 8077,-30037 11407,-14887 25056,-30319 41210,-46031 15872,-15432 35646,-32242 59033,-49887 7242,-5507 13930,-8264 20337,-8264 6116,0 12805,2757 20600,8264 22833,17645 42335,34727 58761,50722 16144,16256 30628,32795 43161,50158l4174 0c18377,-23151 47063,-46031 86331,-68629 39268,-22598 95233,-33902 168197,-33902 69614,0 121124,10197 154819,31144 33696,20675 61266,45206 82429,73864z"/>
  <path id="4" class="fil0" d="M4733678 315971c0,-7157 2232,-13227 6407,-18733 4455,-5244 10028,-12411 17269,-20947 15038,-17092 32861,-35281 52908,-54577 20046,-19015 40665,-37486 61265,-55122 13087,-10196 22833,-15431 29240,-15431 6679,0 16707,5235 30347,15431 43995,37486 81603,74136 112503,109699 6970,7992 12814,14878 17551,20665 4728,5516 6961,11858 6961,19015 0,6895 -2233,12955 -6961,18471 -4737,5516 -10863,12673 -18386,21773 -14756,16810 -31735,34727 -51237,53742 -19766,19015 -39822,37213 -60431,54577 -7786,6332 -13640,10469 -18086,12401 -4184,1923 -8368,2758 -12261,2758 -3621,0 -7523,-835 -11698,-2758 -4174,-1932 -10581,-6069 -19211,-12401 -21717,-17364 -42054,-35562 -61266,-54577 -18930,-19015 -36200,-37486 -51238,-55393 -7241,-8546 -12814,-15441 -17269,-20394 -4175,-5244 -6407,-11304 -6407,-18199zm295183 1055323c0,15985 -3339,27289 -10028,33349 -6951,6341 -18377,9371 -34802,9371l-167916 0c-16425,0 -27851,-3030 -34811,-9371 -6689,-6060 -10019,-17364 -10019,-33349l0 -741397c0,-15984 3330,-27288 10019,-33348 6960,-6341 18386,-9371 34811,-9371l167916 0c16425,0 27851,3030 34802,9371 6689,6060 10028,17364 10028,33348l0 741397z"/>
  <path id="5" class="fil0" d="M5634256 1434136c-69896,0 -128938,-4963 -176827,-15159 -47898,-10479 -88282,-22880 -120852,-38039 -32588,-15160 -61265,-30037 -85496,-45197l0 -1056974c0,-12955 2505,-22879 8077,-30037 22833,-29493 56256,-61462 100252,-95918 7786,-5516 14484,-7992 20328,-7992 7242,0 13921,2476 20600,7992 23396,17636 42879,34456 59033,49887 16163,15713 29803,31144 41219,46031 5563,7158 8077,17082 8077,30037l0 391646 3339 0c21717,-27561 52082,-51538 90506,-72213 38705,-20947 92456,-31144 161508,-31144 77419,0 140908,17645 191029,52917 50131,35281 87156,83516 111668,145251 24503,61735 36754,132296 36754,211948 0,86265 -14475,163713 -43161,232886 -28967,69183 -77410,123751 -145636,163994 -68226,39962 -161789,60084 -280418,60084zm10854 -195410c62935,0 111114,-20675 144256,-62570 33133,-41613 49840,-101143 49840,-178871 0,-78545 -14756,-135599 -44549,-171152 -29530,-35553 -72410,-53189 -128384,-53189 -45103,0 -79643,9090 -103311,27279 -23667,18471 -41763,41623 -54295,69455l0 333495c11970,8818 28958,16810 50965,24249 22270,7720 50675,11304 85478,11304z"/>
  <path id="6" class="fil0" d="M6495004 1434136c-79924,0 -143413,-22054 -190476,-66425 -47063,-44652 -70731,-105834 -70731,-183834 0,-40234 7514,-78001 22561,-112729 15028,-34727 40928,-65318 78245,-92053 37316,-26453 89389,-47954 156780,-64211 67110,-15985 152878,-25356 257304,-28114 0,-49061 -12251,-84342 -37044,-105833 -24784,-21501 -61810,-32251 -111378,-32251 -44558,0 -81040,7439 -109445,22598 -28123,15159 -45937,25356 -52907,30600 -7796,6613 -16979,8818 -27842,7439 -14756,-2205 -30356,-6070 -46791,-11304 -16707,-5507 -34521,-11576 -53461,-18743 -2786,-1097 -5844,-2748 -8912,-5234 -3339,-2477 -5290,-6060 -5844,-10750 0,-2758 272,-6060 835,-10197 553,-4137 1951,-11576 4174,-22326 1942,-10751 5291,-23978 9747,-39962 4184,-15713 8349,-28114 12251,-36660 4737,-9090 13096,-17636 24503,-25901 9193,-7448 37044,-19568 83826,-36106 46782,-16810 114726,-25084 203280,-25084 244218,0 366187,117691 366187,352781l0 456973c0,10197 -2786,19015 -8359,26182 -5844,7439 -15590,11022 -28958,11022l-122522 0c-8639,0 -16435,-1107 -23114,-3583 -6960,-2477 -13367,-7167 -19211,-14334l-50685 -64493 -5572 0c-25056,36107 -58751,62289 -100805,78273 -42335,16267 -90777,24259 -145636,24259zm89670 -187146c50112,0 87992,-12673 113338,-38029 25619,-25356 42036,-51538 49005,-78273l0 -89849c-75468,0 -132277,5788 -170147,17364 -37589,11576 -62936,26726 -75459,45196 -12533,18743 -18668,38865 -18668,60356 0,31144 9756,52917 29240,65046 19775,12129 44005,18189 72691,18189z"/>
  <path id="7" class="fil0" d="M7244637 1414014c-27007,0 -50130,-7439 -69342,-22326 -18931,-14606 -29240,-34999 -30347,-60356 -1388,-25637 10582,-54577 36200,-86818l369526 -469093 -312444 0c-9737,0 -17542,-1933 -22833,-5788 -22279,-17636 -45674,-42167 -70167,-73311 -4456,-7166 -6407,-12129 -6407,-15440 0,-3856 1951,-8537 6407,-14606 24493,-31144 47888,-55675 70167,-73310 6407,-3856 14203,-5788 22833,-5788l531043 0c54587,0 89108,17363 103592,52091 14756,34727 5291,73592 -28405,116584l-363963 469918 335286 0c9747,0 17542,1932 22833,5788 22270,17636 45665,42166 70177,73310 4447,7167 6679,12130 6679,15441 0,3856 -2232,8537 -6679,14606 -24512,31144 -47907,55675 -70177,73310 -6407,3856 -14212,5788 -22833,5788l-571146 0z"/>
  <path id="8" class="fil0" d="M8270242 1434136c-79924,0 -143413,-22054 -190466,-66425 -47073,-44652 -70740,-105834 -70740,-183834 0,-40234 7514,-78001 22560,-112729 15028,-34727 40938,-65318 78245,-92053 37317,-26453 89389,-47954 156780,-64211 67110,-15985 152878,-25356 257304,-28114 0,-49061 -12251,-84342 -37035,-105833 -24784,-21501 -61819,-32251 -111387,-32251 -44558,0 -81040,7439 -109445,22598 -28114,15159 -45937,25356 -52907,30600 -7795,6613 -16979,8818 -27842,7439 -14756,-2205 -30347,-6070 -46782,-11304 -16707,-5507 -34530,-11576 -53470,-18743 -2786,-1097 -5844,-2748 -8902,-5234 -3349,-2477 -5291,-6060 -5854,-10750 0,-2758 272,-6060 835,-10197 563,-4137 1951,-11576 4184,-22326 1942,-10751 5281,-23978 9737,-39962 4184,-15713 8349,-28114 12261,-36660 4728,-9090 13086,-17636 24502,-25901 9193,-7448 37035,-19568 83817,-36106 46782,-16810 114736,-25084 203281,-25084 244227,0 366186,117691 366186,352781l0 456973c0,10197 -2786,19015 -8349,26182 -5854,7439 -15591,11022 -28968,11022l-122521 0c-8631,0 -16436,-1107 -23115,-3583 -6960,-2477 -13367,-7167 -19211,-14334l-50684 -64493 -5573 0c-25056,36107 -58751,62289 -100805,78273 -42326,16267 -90777,24259 -145636,24259zm89671 -187146c50121,0 87991,-12673 113338,-38029 25618,-25356 42044,-51538 49005,-78273l0 -89849c-75468,0 -132269,5788 -170148,17364 -37589,11576 -62926,26726 -75459,45196 -12532,18743 -18667,38865 -18667,60356 0,31144 9755,52917 29239,65046 19775,12129 44015,18189 72692,18189z"/>
  <path id="9" class="fil0" d="M9245163 740693l3340 0c40928,-112174 114172,-168121 220269,-168121 13639,0 24783,825 33414,2204 8630,1098 14756,2477 18105,3584 8076,2476 12251,8818 12251,18461l0 194585c0,16810 -10028,21219 -29521,13780 -6398,-2758 -15863,-5516 -28124,-8546 -12251,-3030 -29240,-4409 -50965,-4409 -55966,0 -99689,20394 -131424,60909 -31473,40797 -47345,95918 -47345,165927l0 352227c0,15985 -3349,27289 -10028,33349 -6961,6341 -18377,9371 -34803,9371l-167924 0c-16426,0 -27842,-3030 -34812,-9371 -6679,-6060 -10019,-17364 -10019,-33349l0 -676632c0,-12945 2505,-22870 8077,-30037 11417,-14887 25066,-30319 41210,-46031 15881,-15432 35647,-32242 59042,-49887 4456,-3302 8630,-5507 13086,-6613 4456,-1098 8077,-1651 11417,-1651 7523,0 15309,2757 22832,8264 45112,35009 76575,64774 94680,89577 5019,6341 7242,14061 7242,22598l0 59811z"/>
  <g>
   <path class="fil1" d="M9642475 1721027l-9597016 0 0 -83864 9597016 0 45459 41932 -45459 41932zm45459 -41932l0 41932 -45459 0 45459 -41932zm0 -16041l0 16041 -90918 0 0 -16041 45459 -41932 45459 41932zm-45459 -41932l45459 0 0 41932 -45459 -41932zm-9597016 0l9597016 0 0 83864 -9597016 0 -45459 -41932 45459 -41932zm-45459 41932l0 -41932 45459 0 -45459 41932zm0 16041l0 -16041 90918 0 0 16041 -45459 41932 -45459 -41932zm45459 41932l-45459 0 0 -41932 45459 41932z"/>
   <polygon id="1" class="fil2" points="45459,1679095 9642475,1679095 9642475,1663054 45459,1663054 "/>
  </g>
  <polygon class="fil1" points="9539371,479093 9539371,80965 9397515,80965 9397515,0 9777585,0 9777585,80965 9636396,80965 9636396,479093 "/>
  <polygon id="1" class="fil1" points="9839029,479093 9839029,0 9984346,0 10070217,326759 10155085,0 10300730,0 10300730,479093 10211069,479093 10210731,101931 10116277,479093 10023042,479093 9929028,101931 9928700,479093 "/>
 </g>
</svg>
